<svg data-v-0dd9719b="" version="1.0" xmlns="http://www.w3.org/2000/svg" xmlns:xlink="http://www.w3.org/1999/xlink" width="100%" height="100%" viewBox="0 0 340.000000 250.000000" preserveAspectRatio="xMidYMid meet" color-interpolation-filters="sRGB" style="margin: auto;"> <rect data-v-0dd9719b="" x="0" y="0" width="100%" height="100%" fill="#fff" fill-opacity="1" class="background"></rect> <rect data-v-0dd9719b="" x="0" y="0" width="100%" height="100%" fill="url(#watermark)" fill-opacity="1" class="watermarklayer"></rect> <g data-v-0dd9719b="" fill="#009ad5" class="icon-text-wrapper icon-svg-group iconsvg" transform="translate(46.5,94.99819755554199)"><g class="iconsvg-imagesvg" transform="translate(0,0)"><g><rect fill="#009ad5" fill-opacity="0" stroke-width="2" x="0" y="0" width="60" height="60.003600216012956" class="image-rect"></rect> <svg x="0" y="0" width="60" height="60.003600216012956" filtersec="colorsb8595473807" class="image-svg-svg primary" style="overflow: visible;"><svg xmlns="http://www.w3.org/2000/svg" viewBox="-0.0035265907645225525 -0.021566875278949738 302.9096374511719 302.92913818359375"><g><g fill-rule="evenodd"><path d="M295.72 128.56L57 77.85l66.21-66.21a40 40 0 0 1 56.46 0l111.58 111.58a39.78 39.78 0 0 1 4.48 5.34zm-184.4 150.8L87 255l47.65-47.65-121-25.7-2-2a40 40 0 0 1-10.89-36l203.12 43.15-92.56 92.56zm-34.87-34.88l28.06-28.06-71.25-15.13z" fill="#009ad5"></path><path d="M123.75 291.77l115-115-231-49.06a39.81 39.81 0 0 1 3.87-4.49L42.8 92.06l259.88 55.2a39.89 39.89 0 0 1-11.42 32.41L179.67 291.25a40 40 0 0 1-55.92.52z" fill="#55bb9f"></path></g></g></svg></svg> <!----></g></g> <g transform="translate(67,4.821802139282227)"><g data-gra="path-name" fill-rule="" class="tp-name iconsvg-namesvg"><g transform="scale(1)"><g><path d="M4.66-43.27L35.24-43.27 30.58 0 28.1 0 29.93 7.03 23.73 7.03 21.96 0 0 0 4.66-43.27ZM6.97-6.08L25.09-6.08 28.4-37.19 10.21-37.19 6.97-6.08ZM42.15-6.08L46.05-43.33 39.91-43.33 35.24 0 65.77 0 70.43-43.33 64.29-43.33 60.33-6.08 42.15-6.08ZM75.03-43.33L70.43 0 99.65 0 101.72-6.08 77.22-6.08 78.75-19.84 99.53-19.84 100.18-25.98 79.34-25.98 80.52-37.25 104.38-37.25 105.02-43.33 75.03-43.33ZM109.63-43.33L105.02 0 134.25 0 136.31-6.08 111.81-6.08 113.35-19.84 134.13-19.84 134.78-25.98 113.94-25.98 115.12-37.25 138.97-37.25 139.62-43.33 109.63-43.33ZM144.17-43.33L139.62 0 145.82 0 149.3-33.18 169.31 0 175.51 0 180-43.33 173.86-43.33 170.5-11.22 150.95-43.33 144.17-43.33Z" transform="translate(0, 43.33000183105469)"></path></g> <!----> <!----> <!----> <!----> <!----> <!----> <!----></g></g> <!----></g></g><defs v-gra="od"></defs></svg>